<?xml version="1.0" encoding="utf-8"?>
<!-- Generator: Adobe Illustrator 18.1.1, SVG Export Plug-In . SVG Version: 6.00 Build 0)  -->
<svg version="1.1" id="Layer_1" xmlns="http://www.w3.org/2000/svg" xmlns:xlink="http://www.w3.org/1999/xlink" x="0px" y="0px"
	 width="30px" height="48px" viewBox="0 0 30 48" enable-background="new 0 0 30 48" xml:space="preserve">
<g>
	<path fill="#62A905" d="M15.1,47.1c-0.4-0.1-0.9-2-1.3-3.6c-0.7-2.5-1.7-6.4-3.7-10.9c-0.8-1.9-2.3-3.9-3.8-6.1
		c-2.7-3.8-5.5-7.7-5.5-11.8C0.8,7,7.2,0.6,15.1,0.6S29.4,7,29.4,14.8c0,4.1-2.8,8.3-5.4,11.9c-1.4,2-2.7,3.9-3.5,5.7
		c-2.1,4.6-3.3,8.5-4.1,11.1C15.9,45.2,15.4,46.9,15.1,47.1z"/>
	<path fill="#FFFFFF" d="M15.1,1c7.7,0,14,6.2,14,13.7c0,4-2.7,7.9-5.3,11.7c-1.4,2-2.7,3.9-3.6,5.8c-2.1,4.6-3.3,8.5-4.1,11.1
		c-0.4,1.2-0.8,2.5-1.1,3.1c-0.3-0.6-0.6-1.9-0.9-3.1c-0.7-2.5-1.7-6.4-3.7-10.9c-0.9-2-2.3-4-3.8-6.1c-2.7-3.7-5.5-7.6-5.5-11.6
		C1.1,7.2,7.4,1,15.1,1 M15.1,0.3C7,0.3,0.4,6.8,0.4,14.8c0,6.5,7.1,12.8,9.4,18c3.8,8.8,4,14.7,5.4,14.7c1.1,0,1.8-6,5.8-15
		c2.3-5.1,8.9-11.3,8.9-17.8C29.8,6.8,23.2,0.3,15.1,0.3L15.1,0.3z"/>
</g>
<polygon fill="#FFFFFF" points="12.8,18.1 17.4,18 15.2,22.8 "/>
<g>
	<path fill="#FFFFFF" d="M9.6,5.8c2.5,0,4.6,1.5,5.5,3.7c0.9-2.1,3-3.7,5.5-3.7c3.2,0,5.8,2.5,5.9,5.7c0-0.1,0-0.1,0-0.2
		c0-4.6-5.1-8.4-11.4-8.4S3.7,6.7,3.7,11.3c0,0.1,0,0.1,0,0.2C3.8,8.3,6.4,5.8,9.6,5.8z"/>
</g>
<circle fill="none" stroke="#FFFFFF" stroke-width="0.75" stroke-miterlimit="10" cx="9.6" cy="11.7" r="4"/>
<circle fill="none" stroke="#FFFFFF" stroke-width="0.75" stroke-miterlimit="10" cx="20.6" cy="11.7" r="4"/>
</svg>
