<?xml version="1.0" encoding="utf-8"?>
<!-- Generator: Adobe Illustrator 18.1.1, SVG Export Plug-In . SVG Version: 6.00 Build 0)  -->
<svg version="1.1" id="Layer_1" xmlns="http://www.w3.org/2000/svg" xmlns:xlink="http://www.w3.org/1999/xlink" x="0px" y="0px"
	 width="30px" height="48px" viewBox="0 0 30 48" enable-background="new 0 0 30 48" xml:space="preserve">
<g>
	<path fill="#62A905" d="M15.1,47.1c-0.4-0.1-0.9-2-1.3-3.6c-0.7-2.5-1.7-6.4-3.7-10.9c-0.8-1.9-2.3-3.9-3.8-6.1
		c-2.7-3.8-5.5-7.7-5.5-11.8C0.8,7,7.2,0.6,15.1,0.6S29.4,7,29.4,14.8c0,4.1-2.8,8.3-5.4,11.9c-1.4,2-2.7,3.9-3.5,5.7
		c-2.1,4.6-3.3,8.5-4.1,11.1C15.9,45.2,15.4,46.9,15.1,47.1z"/>
	<path fill="#FFFFFF" d="M15.1,1c7.7,0,14,6.2,14,13.7c0,4-2.7,7.9-5.3,11.7c-1.4,2-2.7,3.9-3.6,5.8c-2.1,4.6-3.3,8.5-4.1,11.1
		c-0.4,1.2-0.8,2.5-1.1,3.1c-0.3-0.6-0.6-1.9-0.9-3.1c-0.7-2.5-1.7-6.4-3.7-10.9c-0.9-2-2.3-4-3.8-6.1c-2.7-3.7-5.5-7.6-5.5-11.6
		C1.1,7.2,7.4,1,15.1,1 M15.1,0.3C7,0.3,0.4,6.8,0.4,14.8c0,6.5,7.1,12.8,9.4,18c3.8,8.8,4,14.7,5.4,14.7c1.1,0,1.8-6,5.8-15
		c2.3-5.1,8.9-11.3,8.9-17.8C29.8,6.8,23.2,0.3,15.1,0.3L15.1,0.3z"/>
</g>
<g>
	<path fill="#FFFFFF" d="M15.1,44.7c-0.3-0.1-0.8-1.8-1.2-3.4c-0.6-2.4-1.6-5.9-3.5-10.1c-0.8-1.8-2.2-3.7-3.6-5.6
		c-2.6-3.5-5.2-7.2-5.2-10.9c0-7.2,6.1-13.1,13.5-13.1s13.5,5.9,13.5,13.1c0,3.8-2.6,7.5-5.1,11c-1.3,1.9-2.6,3.6-3.3,5.3
		c-1.9,4.3-3.1,7.9-3.9,10.3C15.9,43,15.4,44.5,15.1,44.7z"/>
	<path fill="#62A905" d="M15.1,2c7.3,0,13.2,5.7,13.2,12.7c0,3.7-2.5,7.3-5,10.8c-1.3,1.9-2.6,3.7-3.4,5.4
		c-1.9,4.3-3.1,7.9-3.9,10.3c-0.3,1.1-0.7,2.2-1,2.8c-0.2-0.6-0.6-1.7-0.8-2.8c-0.6-2.4-1.6-6-3.5-10.2c-0.8-1.8-2.2-3.7-3.6-5.7
		c-2.5-3.5-5.1-7.1-5.1-10.7C1.9,7.7,7.8,2,15.1,2 M15.1,1.2c-7.7,0-13.9,6-13.9,13.5c0,6.1,6.7,11.9,8.8,16.7
		c3.6,8.1,3.8,13.7,5.1,13.7c1,0,1.7-5.6,5.5-13.9c2.2-4.8,8.4-10.5,8.4-16.5C29,7.2,22.8,1.2,15.1,1.2L15.1,1.2z"/>
</g>
<g id="_x31_m41eO_1_">
	<g>
		<path fill="#3A58A7" d="M7.9,24.2c0.3-0.2,0.6-0.4,0.8-0.6c0.6-0.5,1.1-1,1.6-1.4c0.8-0.7,1.8-1.1,2.9-1.1c2.7,0,5.5,0,8.2,0
			c0,0,0,0,0.1,0c-0.2,0.1-0.4,0.2-0.5,0.3c-0.7,0.4-1.3,1-1.9,1.5c-0.6,0.6-1.3,1.1-2.2,1.2c-0.2,0-0.4,0.1-0.6,0.1
			C13.5,24.2,10.7,24.2,7.9,24.2z"/>
		<path fill="#ED1C24" d="M17.6,17.7c-1.5,0-2.9,0-4.4,0c0.1-0.1,0.2-0.2,0.2-0.3c0.2-0.4,0.3-0.8,0.3-1.2c0-2.7,0-5.4,0-8.1
			c0,0,0-0.1,0-0.1c-0.2,0-0.4,0-0.6,0C12,8,10.9,8.1,9.8,8.4C9.3,8.5,8.9,8.7,8.4,9c0-0.9,0-1.9,0-2.8c4.6,0,9.3,0,13.9,0
			c0,0.9,0,1.8,0,2.8c-0.3-0.1-0.5-0.3-0.8-0.4c-0.8-0.3-1.6-0.5-2.4-0.6C18.5,8,17.8,8,17.2,7.9c-0.1,0-0.2,0-0.2,0.2
			c0,2.6,0,5.2,0,7.8c0,0.5,0,0.9,0.2,1.4C17.3,17.4,17.5,17.6,17.6,17.7z"/>
	</g>
</g>
</svg>
