<?xml version="1.0" encoding="utf-8"?>
<!-- Generator: Adobe Illustrator 18.1.1, SVG Export Plug-In . SVG Version: 6.00 Build 0)  -->
<svg version="1.1" id="Layer_1" xmlns="http://www.w3.org/2000/svg" xmlns:xlink="http://www.w3.org/1999/xlink" x="0px" y="0px"
	 width="92px" height="25px" viewBox="0 0 92 25" enable-background="new 0 0 92 25" xml:space="preserve">
<g>
	<path fill="#FBFBFB" d="M92.6,20.7c0,1.4,0,2.7,0,4.1c0,0.2,0,0.2-0.2,0.2c-9.2,0-18.4,0-27.6,0c-21.6,0-43.1,0-64.7,0
		C0.1,25,0,25,0,24.8c0.1,0,0.1,0,0.2,0c3.6,0,7.3,0,10.9,0c0.8,0,1.5-0.1,2.2-0.4c0.8-0.3,1.5-0.9,2.1-1.5c0.8-0.8,1.7-1.5,2.7-2
		c0.1-0.1,0.3-0.1,0.4-0.2c-0.1-0.1-0.2,0-0.3,0c-3.6,0-7.3,0-10.9,0c-1.6,0-3,0.6-4.1,1.7c-0.7,0.7-1.4,1.4-2.2,1.9
		c-0.3,0.2-0.6,0.4-0.9,0.6C0,16.6,0,8.4,0,0.2C0,0.1,0,0,0.2,0c30.7,0,61.5,0,92.2,0c0.2,0,0.2,0,0.2,0.2
		C92.6,7,92.6,13.8,92.6,20.7c0-0.1-0.1-0.1-0.1-0.1c-3.7,0-7.5,0-11.2,0c-1.2,0-2.3,0.4-3.3,1c-0.6,0.4-1,0.9-1.5,1.3
		c-0.5,0.5-1.1,1-1.7,1.4c-0.2,0.1-0.4,0.3-0.7,0.5c0.2,0,0.2,0,0.3,0c3.6,0,7.1,0,10.7,0c1.1,0,2.1-0.2,3-0.8
		c0.5-0.3,1-0.7,1.4-1.2C90.5,22,91.5,21.2,92.6,20.7z M81.9,16.7c0.4,0,0.9,0,1.3-0.1c1.9-0.2,3.7-0.7,5.3-1.8
		c1.4-1,2.5-2.2,3.1-3.9c0.5-1.5,0.6-2.9,0.3-4.4c-0.5-2.3-1.8-3.9-3.7-5.1c-1.3-0.8-2.7-1.1-4.2-1.3c-2.5-0.2-4.9,0-7.2,1.1
		C74,2.6,72.3,4.7,72,7.7c-0.2,1.5,0,3,0.7,4.4c1,1.9,2.5,3.1,4.5,3.9C78.7,16.5,80.3,16.7,81.9,16.7z M52,4.8C52,4.7,52,4.7,52,4.8
		c0-1.2,0-2.3,0-3.5c0-0.1-0.1-0.2-0.2-0.2c-0.5-0.1-1-0.3-1.5-0.4c-1.5-0.3-3.1-0.5-4.6-0.6c-1.6-0.1-3.3,0-4.8,0.5
		C39.9,0.9,39,1.3,38.3,2c-0.9,0.9-1.3,2-1.3,3.3c0,1.5,0.7,2.6,2,3.4c1.1,0.6,2.3,0.9,3.5,1.1c1.3,0.2,2.7,0.4,4,0.7
		c0.6,0.1,1.2,0.3,1.8,0.7c0.7,0.5,0.9,1.5,0.4,2.1c-0.3,0.5-0.9,0.7-1.4,0.8c-0.8,0.2-1.6,0.3-2.4,0.3c-2.6,0-5.1-0.6-7.4-1.9
		c-0.1,0-0.1-0.1-0.2-0.1c0,0.1,0,0.1,0,0.2c0,1,0,2,0,2.9c0,0.2,0.1,0.3,0.2,0.3c0.9,0.3,1.7,0.4,2.6,0.6c1.6,0.2,3.3,0.3,4.9,0.3
		c1.6,0,3.1-0.1,4.6-0.7c1.9-0.7,3.1-2,3.2-4.1c0.1-1.6-0.4-2.9-1.7-3.9c-0.9-0.6-1.9-1-3-1.2c-1.1-0.3-2.3-0.4-3.4-0.6
		c-0.9-0.1-1.7-0.3-2.6-0.6c-0.4-0.2-0.8-0.4-1-0.8c-0.3-0.7,0-1.5,0.7-1.9c0.6-0.4,1.3-0.5,2.1-0.6c1-0.1,2.1,0,3.1,0.2
		c1.4,0.2,2.7,0.6,4,1.4C51.3,4.2,51.7,4.5,52,4.8z M21,0.6c0.6,0.7,0.8,1.5,0.8,2.3c0,3.5,0,7,0,10.5c0,0.3,0,0.6,0,0.9
		c0,0.6-0.2,1.2-0.6,1.7c0,0-0.1,0.1,0,0.1c0,0,0,0,0.1,0c4.7,0,9.5,0,14.2,0c0.2,0,0.2-0.1,0.2-0.2c0-1.1,0-2.3,0-3.4
		c0,0,0-0.1,0-0.1c-0.3,0.1-0.5,0.3-0.8,0.4c-1.3,0.6-2.6,0.8-4,0.9c-1.5,0.1-3,0-4.4,0.1c-0.1,0-0.2-0.1-0.2-0.2c0-1.3,0-2.6,0-4
		c0-0.1,0-0.2,0.2-0.2c0.4,0,0.9,0,1.3,0c1.3,0,2.7,0.1,4,0.4c0.2,0,0.2,0,0.2-0.1c0-0.8,0-1.6,0-2.4c0-0.2,0-0.4,0-0.7
		c-0.3,0.1-0.5,0.1-0.8,0.2c-1.6,0.3-3.1,0.3-4.7,0.3c-0.2,0-0.1-0.1-0.1-0.2c0-1.2,0-2.5,0-3.7c0-0.2,0-0.2,0.2-0.2
		c0.8,0,1.6,0,2.4,0c1.5,0,2.9,0.2,4.3,0.7c0.6,0.2,1.1,0.4,1.6,0.8c0-0.1,0-0.2,0-0.3c0-1.1,0-2.2,0-3.2c0-0.2-0.1-0.3-0.3-0.3
		c-4.3,0-8.7,0-13,0C21.3,0.6,21.2,0.6,21,0.6z M70.7,4.6c0-0.1,0-0.2,0-0.3c0-1.2,0-2.3,0-3.5c0-0.2-0.1-0.3-0.3-0.3
		c-2.1-0.4-4.1-0.5-6.2-0.3c-2,0.1-4,0.6-5.7,1.5c-2.3,1.2-3.9,3.1-4.4,5.7c-0.2,1.3-0.1,2.5,0.3,3.7c0.7,1.9,2,3.2,3.7,4.1
		c1.9,1,4,1.4,6.1,1.5c2.2,0.1,4.4-0.2,6.6-0.7c0.1,0,0.2-0.1,0.2-0.2c0-1,0-2.1,0-3.1c0-0.2,0-0.5,0-0.7c-0.3,0.3-0.5,0.5-0.8,0.7
		c-1.3,1-2.7,1.5-4.3,1.5c-1.3,0-2.6-0.2-3.8-0.8c-1.6-0.9-2.6-2.3-2.8-4.1c-0.3-2.1,0.4-3.9,2.1-5.3c1-0.8,2.2-1.2,3.4-1.3
		c1.9-0.2,3.6,0.2,5.1,1.3C70.1,4.1,70.3,4.3,70.7,4.6z M19.4,4.4c0-0.1,0-0.1,0-0.1c0-1.2,0-2.3,0-3.5c0-0.2-0.1-0.2-0.2-0.2
		c-6.1,0-12.2,0-18.3,0c-0.2,0-0.2,0.1-0.2,0.2c0,1.1,0,2.3,0,3.4c0,0.1,0,0.1,0,0.2C1.3,4,2,3.7,2.7,3.6C4.3,3.1,5.9,3,7.6,3
		c0.2,0,0.2,0.1,0.2,0.3c0,2.1,0,4.2,0,6.2c0,1.5,0,3,0,4.4c0,0.8-0.2,1.5-0.7,2.1c0,0-0.1,0.1,0,0.1c2,0,3.9,0,5.9,0
		c-0.1-0.2-0.3-0.4-0.4-0.7c-0.3-0.5-0.3-1.1-0.3-1.6c0-3.6,0-7.2,0-10.7c0-0.2,0.1-0.2,0.2-0.2c1,0,2.1,0.1,3.1,0.3
		C16.9,3.4,18.2,3.7,19.4,4.4z M37.1,24.8c0.1,0.1,0.2,0,0.3,0c3.6,0,7.1,0,10.7,0c1.1,0,2.1-0.2,3-0.8c0.6-0.4,1.1-0.8,1.5-1.3
		c0.8-0.7,1.6-1.4,2.5-1.9c0.2-0.1,0.3-0.1,0.5-0.3c-0.1-0.1-0.3,0-0.4,0c-3.7,0-7.3,0-11,0c-0.4,0-0.8,0.1-1.2,0.2
		c-1.1,0.3-2,0.8-2.9,1.6c-0.8,0.8-1.7,1.6-2.7,2.2C37.3,24.6,37.2,24.7,37.1,24.8z M37,20.6c-0.1-0.1-0.2-0.1-0.3-0.1
		c-3.7,0-7.4,0-11.1,0c-0.4,0-0.9,0.1-1.3,0.2c-1.1,0.3-2,0.8-2.8,1.6c-0.8,0.8-1.6,1.5-2.5,2.1c0,0-0.1,0.1-0.2,0.1
		c-0.2,0-0.3,0.2-0.4,0.3c0.1,0.1,0.2,0,0.3,0c2.2,0,4.5,0,6.7,0c1.4,0,2.8,0,4.2,0c1.2,0,2.3-0.4,3.2-1.2c0.7-0.6,1.4-1.3,2.2-1.8
		C35.8,21.4,36.4,21,37,20.6z M55.7,24.8c0.1,0,0.2,0,0.3,0c3.5,0,7.1,0,10.6,0c0.6,0,1.1,0,1.7-0.2c1-0.3,1.8-0.9,2.5-1.5
		c0.8-0.7,1.6-1.5,2.6-2.1c0.2-0.1,0.5-0.3,0.8-0.4c-0.2-0.1-0.3,0-0.4,0c-3.7,0-7.3,0-11,0c-0.2,0-0.5,0-0.7,0.1
		c-1.3,0.2-2.4,0.8-3.3,1.7c-0.9,0.9-1.8,1.7-2.9,2.3C55.7,24.7,55.7,24.7,55.7,24.8z"/>
	<path fill="#0142ED" d="M0,24.7c0.4-0.1,0.6-0.3,0.9-0.6c0.8-0.6,1.5-1.3,2.2-1.9c1.2-1.1,2.5-1.7,4.1-1.7c3.6,0,7.3,0,10.9,0
		c0.1,0,0.2,0,0.3,0c-0.1,0.1-0.3,0.2-0.4,0.2c-1,0.6-1.8,1.3-2.7,2c-0.6,0.6-1.3,1.1-2.1,1.5c-0.7,0.3-1.4,0.4-2.2,0.4
		c-3.6,0-7.3,0-10.9,0C0.1,24.8,0,24.8,0,24.7C0,24.8,0,24.8,0,24.7z"/>
	<path fill="#0142ED" d="M92.6,20.7c-1.2,0.6-2.1,1.4-3.1,2.2c-0.5,0.4-0.9,0.8-1.4,1.2c-0.9,0.6-1.9,0.8-3,0.8c-3.6,0-7.1,0-10.7,0
		c-0.1,0-0.2,0-0.3,0c0.3-0.2,0.5-0.3,0.7-0.5c0.6-0.4,1.2-0.9,1.7-1.4c0.5-0.4,1-1,1.5-1.3c1-0.7,2.1-1,3.3-1c3.7,0,7.5,0,11.2,0
		C92.6,20.6,92.6,20.6,92.6,20.7C92.6,20.6,92.6,20.6,92.6,20.7z"/>
	<path fill="#FA0217" d="M81.9,16.7c-1.6,0-3.2-0.2-4.7-0.7c-2-0.7-3.5-1.9-4.5-3.9C72,10.7,71.8,9.2,72,7.7c0.4-3,2.1-5,4.7-6.3
		C79,0.2,81.4,0,83.9,0.2c1.5,0.1,2.9,0.5,4.2,1.3c2,1.1,3.3,2.8,3.7,5.1c0.3,1.5,0.2,3-0.3,4.4c-0.6,1.6-1.7,2.9-3.1,3.9
		c-1.6,1.1-3.4,1.6-5.3,1.8C82.7,16.7,82.3,16.7,81.9,16.7z M87.3,8.4c0-1.5-0.4-2.8-1.3-4c-0.9-1.1-2-1.8-3.4-1.9
		c-1.4-0.1-2.7,0.1-3.8,1c-0.5,0.4-0.9,0.9-1.2,1.4c-1,1.6-1.2,3.4-0.7,5.2c0.6,2.2,1.9,3.8,4.2,4.2c1.9,0.3,3.5-0.2,4.8-1.7
		C86.9,11.4,87.3,10,87.3,8.4z"/>
	<path fill="#FA0217" d="M52,4.8c-0.3-0.3-0.7-0.5-1-0.7c-1.2-0.7-2.6-1.1-4-1.4c-1-0.2-2.1-0.2-3.1-0.2c-0.7,0-1.4,0.2-2.1,0.6
		c-0.7,0.4-1.1,1.2-0.7,1.9c0.2,0.4,0.6,0.6,1,0.8c0.8,0.3,1.7,0.5,2.6,0.6c1.1,0.2,2.3,0.3,3.4,0.6c1.1,0.3,2.1,0.6,3,1.2
		c1.3,1,1.8,2.3,1.7,3.9c-0.1,2.1-1.3,3.4-3.2,4.1c-1.5,0.5-3,0.7-4.6,0.7c-1.6,0-3.3-0.1-4.9-0.3c-0.9-0.1-1.8-0.3-2.6-0.6
		c-0.2-0.1-0.2-0.1-0.2-0.3c0-1,0-2,0-2.9c0-0.1,0-0.1,0-0.2c0.1,0,0.1,0,0.2,0.1c2.3,1.4,4.7,2,7.4,1.9c0.8,0,1.6-0.1,2.4-0.3
		c0.5-0.2,1-0.4,1.4-0.8c0.5-0.6,0.3-1.6-0.4-2.1c-0.5-0.4-1.1-0.6-1.8-0.7c-1.3-0.3-2.6-0.4-4-0.7c-1.2-0.2-2.4-0.5-3.5-1.1
		c-1.3-0.7-1.9-1.9-2-3.4C37,4,37.4,2.9,38.3,2c0.7-0.7,1.6-1.1,2.5-1.4c1.6-0.5,3.2-0.6,4.8-0.5c1.6,0.1,3.1,0.3,4.6,0.6
		c0.5,0.1,1,0.3,1.5,0.4C52,1.1,52,1.2,52,1.3C52,2.4,52,3.5,52,4.8C52,4.7,52,4.7,52,4.8z"/>
	<path fill="#FA0217" d="M21,0.6c0.2,0,0.3,0,0.4,0c4.3,0,8.7,0,13,0c0.2,0,0.3,0,0.3,0.3c0,1.1,0,2.2,0,3.2c0,0.1,0,0.1,0,0.3
		c-0.5-0.4-1-0.6-1.6-0.8C31.7,3.2,30.3,3,28.8,3c-0.8,0-1.6,0-2.4,0c-0.2,0-0.2,0-0.2,0.2c0,1.2,0,2.5,0,3.7c0,0.1,0,0.2,0.1,0.2
		c1.6,0,3.1,0,4.7-0.3c0.2,0,0.5-0.1,0.8-0.2c0,0.2,0,0.4,0,0.7c0,0.8,0,1.6,0,2.4c0,0.1,0,0.2-0.2,0.1c-1.3-0.3-2.6-0.4-4-0.4
		c-0.4,0-0.9,0-1.3,0c-0.1,0-0.2,0-0.2,0.2c0,1.3,0,2.6,0,4c0,0.1,0,0.2,0.2,0.2c1.5,0,3,0.1,4.4-0.1c1.4-0.1,2.7-0.3,4-0.9
		c0.3-0.1,0.5-0.3,0.8-0.4c0,0.1,0,0.1,0,0.1c0,1.1,0,2.3,0,3.4c0,0.1,0,0.2-0.2,0.2c-4.7,0-9.5,0-14.2,0c0,0,0,0-0.1,0
		c0-0.1,0-0.1,0-0.1c0.4-0.5,0.6-1.1,0.6-1.7c0-0.3,0-0.6,0-0.9c0-3.5,0-7,0-10.5C21.8,2.1,21.6,1.3,21,0.6z"/>
	<path fill="#FA0217" d="M70.7,4.6c-0.3-0.3-0.6-0.5-0.8-0.7c-1.5-1.1-3.3-1.5-5.1-1.3c-1.3,0.1-2.4,0.5-3.4,1.3
		c-1.7,1.4-2.4,3.2-2.1,5.3c0.2,1.8,1.2,3.2,2.8,4.1c1.2,0.7,2.5,0.9,3.8,0.8c1.6,0,3.1-0.5,4.3-1.5c0.3-0.2,0.5-0.4,0.8-0.7
		c0,0.3,0,0.5,0,0.7c0,1,0,2.1,0,3.1c0,0.1,0,0.2-0.2,0.2c-2.2,0.5-4.4,0.8-6.6,0.7c-2.1-0.1-4.2-0.5-6.1-1.5
		c-1.7-0.9-3-2.2-3.7-4.1c-0.4-1.2-0.5-2.4-0.3-3.7c0.5-2.7,2.1-4.5,4.4-5.7c1.8-1,3.7-1.4,5.7-1.5c2.1-0.1,4.1,0,6.2,0.3
		c0.2,0,0.3,0.1,0.3,0.3c0,1.2,0,2.3,0,3.5C70.7,4.3,70.7,4.4,70.7,4.6z"/>
	<path fill="#FA0217" d="M19.4,4.4c-1.2-0.8-2.5-1-3.8-1.2c-1-0.2-2.1-0.2-3.1-0.3c-0.2,0-0.2,0-0.2,0.2c0,3.6,0,7.2,0,10.7
		c0,0.6,0,1.1,0.3,1.6c0.1,0.2,0.3,0.4,0.4,0.7c-2,0-4,0-5.9,0c0,0,0-0.1,0-0.1c0.5-0.6,0.7-1.3,0.7-2.1c0-1.5,0-3,0-4.4
		c0-2.1,0-4.2,0-6.2c0-0.2,0-0.3-0.2-0.3C5.9,3,4.3,3.1,2.7,3.6C2,3.7,1.3,4,0.7,4.4c-0.1,0,0-0.1,0-0.2c0-1.1,0-2.3,0-3.4
		c0-0.2,0.1-0.2,0.2-0.2c6.1,0,12.2,0,18.3,0c0.1,0,0.2,0,0.2,0.2c0,1.2,0,2.3,0,3.5C19.4,4.3,19.4,4.4,19.4,4.4z"/>
	<path fill="#0142ED" d="M37.1,24.8c0.1-0.1,0.2-0.1,0.3-0.2c1-0.6,1.9-1.4,2.7-2.2c0.8-0.8,1.7-1.4,2.9-1.6
		c0.4-0.1,0.8-0.2,1.2-0.2c3.7,0,7.3,0,11,0c0.1,0,0.2,0,0.4,0c-0.1,0.1-0.3,0.2-0.5,0.3c-0.9,0.5-1.7,1.2-2.5,1.9
		c-0.5,0.4-1,0.9-1.5,1.3c-0.9,0.6-1.9,0.8-3,0.8c-3.6,0-7.1,0-10.7,0C37.3,24.8,37.2,24.8,37.1,24.8z"/>
	<path fill="#0142ED" d="M37,20.6c-0.7,0.3-1.2,0.7-1.8,1.1c-0.8,0.6-1.4,1.3-2.2,1.8c-0.9,0.8-2,1.2-3.2,1.2c-1.4,0-2.8,0-4.2,0
		c-2.2,0-4.5,0-6.7,0c-0.1,0-0.2,0-0.3,0c0.1-0.1,0.2-0.3,0.4-0.3c0.1,0,0.1,0,0.2-0.1c0.9-0.7,1.7-1.4,2.5-2.1
		c0.8-0.8,1.7-1.3,2.8-1.6c0.4-0.1,0.9-0.2,1.3-0.2c3.7,0,7.4,0,11.1,0C36.8,20.6,36.9,20.5,37,20.6z"/>
	<path fill="#0142ED" d="M55.7,24.8c0-0.1,0-0.1,0.1-0.1c1.1-0.6,2-1.5,2.9-2.3c0.9-0.9,2-1.5,3.3-1.7c0.2,0,0.5-0.1,0.7-0.1
		c3.7,0,7.3,0,11,0c0.1,0,0.3,0,0.4,0c-0.3,0.2-0.5,0.3-0.8,0.4c-0.9,0.6-1.8,1.3-2.6,2.1c-0.7,0.7-1.5,1.3-2.5,1.5
		c-0.5,0.2-1.1,0.2-1.7,0.2c-3.5,0-7.1,0-10.6,0C55.9,24.8,55.8,24.8,55.7,24.8z"/>
	<path fill="#FBFBFB" d="M87.3,8.4c0,1.6-0.4,3-1.5,4.2c-1.3,1.4-2.9,2-4.8,1.7c-2.4-0.4-3.7-1.9-4.2-4.2c-0.4-1.8-0.2-3.5,0.7-5.2
		c0.3-0.5,0.7-1,1.2-1.4c1.1-0.9,2.4-1.2,3.8-1C84,2.7,85.1,3.3,86,4.4C86.9,5.6,87.3,6.9,87.3,8.4z"/>
</g>
</svg>
